<svg width="151" height="16" viewBox="0 0 151 16" fill="none" xmlns="http://www.w3.org/2000/svg">
    <path
        d="M0.661377 14.8612L5.57945 1.13852H7.71615L12.6342 14.8612H10.7001L9.57654 11.6378H3.71906L2.59545 14.8612H0.661377ZM3.71906 11.6378H9.57654L6.38992 2.44632H6.90568L3.71906 11.6378Z"
        fill="#7F56DA" />
    <path
        d="M28.3205 15.0823C27.3504 15.0823 26.454 14.9104 25.6312 14.5665C24.8208 14.2104 24.1085 13.7131 23.4945 13.0745C22.8928 12.436 22.4262 11.6869 22.0946 10.8273C21.7631 9.96772 21.5973 9.02832 21.5973 8.00909C21.5973 6.97758 21.7631 6.03203 22.0946 5.17245C22.4262 4.31286 22.8928 3.56379 23.4945 2.92523C24.0963 2.28668 24.8085 1.79549 25.6312 1.45165C26.454 1.09554 27.3504 0.91748 28.3205 0.91748C29.2661 0.91748 30.1134 1.08326 30.8624 1.41481C31.6238 1.74637 32.2623 2.17616 32.7781 2.7042C33.3061 3.23223 33.6807 3.7971 33.9017 4.39882L32.2439 5.15403C31.9247 4.39267 31.4273 3.77868 30.7519 3.31205C30.0765 2.83314 29.2661 2.59368 28.3205 2.59368C27.3627 2.59368 26.5092 2.82086 25.7602 3.27521C25.0234 3.72956 24.4462 4.36198 24.0287 5.17245C23.6112 5.98291 23.4024 6.92846 23.4024 8.00909C23.4024 9.07743 23.6112 10.0168 24.0287 10.8273C24.4462 11.6378 25.0234 12.2702 25.7602 12.7245C26.5092 13.1789 27.3627 13.4061 28.3205 13.4061C29.2661 13.4061 30.0765 13.1728 30.7519 12.7061C31.4273 12.2272 31.9247 11.6071 32.2439 10.8457L33.9017 11.6009C33.6807 12.2027 33.3061 12.7675 32.7781 13.2956C32.2623 13.8236 31.6238 14.2534 30.8624 14.5849C30.1134 14.9165 29.2661 15.0823 28.3205 15.0823Z"
        fill="#7F56DA" />
    <path
        d="M43.2276 14.8612L48.1456 1.13852H50.2823L55.2004 14.8612H53.2663L52.1427 11.6378H46.2853L45.1616 14.8612H43.2276ZM46.2853 11.6378H52.1427L48.9561 2.44632H49.4719L46.2853 11.6378Z"
        fill="#7F56DA" />
    <path
        d="M69.6619 15.0823C68.7901 15.0823 67.9919 14.9226 67.2674 14.6034C66.5429 14.2718 65.9289 13.8236 65.4254 13.2587C64.9219 12.6938 64.5597 12.0614 64.3386 11.3615L65.9043 10.7168C66.2359 11.6009 66.7271 12.2825 67.3779 12.7614C68.041 13.228 68.8146 13.4613 69.6988 13.4613C70.2391 13.4613 70.7119 13.3754 71.1171 13.2035C71.5223 13.0315 71.8355 12.7921 72.0565 12.4851C72.2898 12.1658 72.4065 11.7974 72.4065 11.3799C72.4065 10.8028 72.2407 10.3484 71.9092 10.0168C71.5899 9.67301 71.1171 9.41513 70.4908 9.24321L67.9673 8.46958C66.9727 8.16259 66.2113 7.67753 65.6833 7.01442C65.1553 6.35131 64.8912 5.58996 64.8912 4.73037C64.8912 3.9813 65.0693 3.32433 65.4254 2.75946C65.7938 2.1823 66.2973 1.73409 66.9358 1.41481C67.5867 1.08326 68.3234 0.91748 69.1462 0.91748C69.9689 0.91748 70.7119 1.06484 71.375 1.35955C72.0504 1.65427 72.6214 2.05337 73.088 2.55684C73.5547 3.04803 73.8985 3.61291 74.1195 4.25146L72.5723 4.89615C72.2776 4.12252 71.8355 3.53923 71.246 3.14627C70.6566 2.74104 69.9628 2.53842 69.1646 2.53842C68.6734 2.53842 68.2375 2.62438 67.8568 2.7963C67.4884 2.95593 67.1998 3.19539 66.9911 3.51467C66.7946 3.82166 66.6964 4.19006 66.6964 4.61985C66.6964 5.12333 66.856 5.57154 67.1753 5.9645C67.4946 6.35745 67.9796 6.65831 68.6304 6.86706L70.9329 7.54859C72.0135 7.88015 72.8301 8.35292 73.3827 8.96692C73.9353 9.58091 74.2116 10.3423 74.2116 11.251C74.2116 12 74.0152 12.6631 73.6222 13.2403C73.2415 13.8175 72.7074 14.2718 72.0197 14.6034C71.3443 14.9226 70.5584 15.0823 69.6619 15.0823Z"
        fill="#7F56DA" />
    <path d="M87.4459 14.8612V2.7963H83.7251V1.13852H92.935V2.7963H89.2695V14.8612H87.4459Z" fill="#7F56DA" />
    <path d="M102.872 14.8612V1.13852H104.677V14.8612H102.872Z" fill="#7F56DA" />
    <path
        d="M115.925 14.8612V1.13852H117.436L125.319 12.2272L124.638 12.3009V1.13852H126.461V14.8612H124.951L117.104 3.69886L117.73 3.62519V14.8612H115.925Z"
        fill="#7F56DA" />
    <path
        d="M144.057 15.0823C143.087 15.0823 142.191 14.9104 141.368 14.5665C140.545 14.2104 139.833 13.7131 139.232 13.0745C138.63 12.436 138.157 11.6869 137.813 10.8273C137.482 9.96772 137.316 9.02832 137.316 8.00909C137.316 6.97758 137.482 6.03203 137.813 5.17245C138.145 4.31286 138.611 3.56379 139.213 2.92523C139.815 2.28668 140.527 1.79549 141.35 1.45165C142.173 1.09554 143.069 0.91748 144.039 0.91748C144.985 0.91748 145.832 1.08326 146.581 1.41481C147.342 1.74637 147.981 2.17616 148.497 2.7042C149.025 3.23223 149.399 3.7971 149.62 4.39882L147.999 5.19086C147.68 4.39267 147.183 3.76026 146.507 3.29363C145.832 2.827 145.009 2.59368 144.039 2.59368C143.081 2.59368 142.228 2.82086 141.479 3.27521C140.742 3.72956 140.165 4.36198 139.747 5.17245C139.33 5.98291 139.121 6.92846 139.121 8.00909C139.121 9.07743 139.33 10.0168 139.747 10.8273C140.177 11.6378 140.76 12.2702 141.497 12.7245C142.246 13.1789 143.1 13.4061 144.057 13.4061C144.893 13.4061 145.648 13.228 146.323 12.8719C146.999 12.5158 147.533 12.0246 147.926 11.3983C148.319 10.7721 148.515 10.0475 148.515 9.22479V8.37748L149.344 9.15111H144.039V7.58543H150.339V8.80114C150.339 9.75897 150.173 10.6247 149.841 11.3983C149.51 12.172 149.055 12.8351 148.478 13.3877C147.901 13.928 147.232 14.3455 146.47 14.6402C145.709 14.9349 144.905 15.0823 144.057 15.0823Z"
        fill="#7F56DA" />
</svg>